<svg xmlns="http://www.w3.org/2000/svg" width="819" height="530" fill="none" viewBox="0 0 819 530"><path fill="#3394F7" d="M136.703 86.6772L423.527 279.097L186.751 429.226L136.703 86.6772Z"/><rect width="51.143" height="130.894" fill="#3394F7" transform="matrix(0.821707 -0.56991 0.56569 0.824618 273.149 351.864)"/><g filter="url(#filter0_di)"><path fill="#063092" d="M259.835 218.476H308.438V299.687C308.438 312.636 305.48 322.158 299.562 328.251C293.058 334.814 282.452 338.095 267.745 338.095H259.835V218.476ZM192.071 297.05H245.245V338.095H239.532C222.716 338.095 210.616 335.4 203.233 330.009C195.792 324.677 192.071 315.8 192.071 303.378V297.05Z"/><path fill="#E5E5E5" d="M259.835 218.476V217.476H258.835V218.476H259.835ZM308.439 218.476H309.439V217.476H308.439V218.476ZM299.562 328.251L300.272 328.955L300.279 328.948L299.562 328.251ZM259.835 338.095H258.835V339.095H259.835V338.095ZM192.071 297.05V296.05H191.071V297.05H192.071ZM245.245 297.05H246.245V296.05H245.245V297.05ZM245.245 338.095V339.095H246.245V338.095H245.245ZM203.233 330.009L203.823 329.202L203.816 329.196L203.233 330.009ZM259.835 219.476H308.439V217.476H259.835V219.476ZM307.439 218.476V299.687H309.439V218.476H307.439ZM307.439 299.687C307.439 312.509 304.505 321.725 298.844 327.555L300.279 328.948C306.454 322.59 309.439 312.763 309.439 299.687H307.439ZM298.851 327.547C292.621 333.834 282.338 337.095 267.745 337.095V339.095C282.566 339.095 293.495 335.793 300.272 328.955L298.851 327.547ZM267.745 337.095H259.835V339.095H267.745V337.095ZM260.835 338.095V218.476H258.835V338.095H260.835ZM192.071 298.05H245.245V296.05H192.071V298.05ZM244.245 297.05V338.095H246.245V297.05H244.245ZM245.245 337.095H239.532V339.095H245.245V337.095ZM239.532 337.095C222.773 337.095 210.942 334.4 203.823 329.202L202.644 330.817C210.29 336.4 222.658 339.095 239.532 339.095V337.095ZM203.816 329.196C196.724 324.115 193.071 315.603 193.071 303.378H191.071C191.071 315.998 194.86 325.24 202.651 330.822L203.816 329.196ZM193.071 303.378V297.05H191.071V303.378H193.071Z"/><path fill="#063092" d="M322.757 288.294C322.679 287.982 322.614 287.643 322.562 287.279L322.405 286.185C322.301 285.404 322.249 284.492 322.249 283.451C322.249 282.383 322.484 281.159 322.952 279.779C323.447 278.398 324.241 277.201 325.335 276.185C327.679 273.997 331.299 272.904 336.195 272.904L365.218 298.411C365.478 299.349 365.609 300.599 365.609 302.161C365.609 303.698 365.348 305.169 364.827 306.576C364.307 307.956 363.473 309.154 362.327 310.169C359.879 312.409 356.312 313.529 351.624 313.529L323.03 288.294H322.757ZM365.882 273.294C366.663 274.492 367.054 276.133 367.054 278.216C367.054 282.07 365.609 284.948 362.718 286.849L347.054 273.294H365.882ZM321.624 313.138C320.843 311.94 320.452 310.3 320.452 308.216C320.452 304.388 321.885 301.523 324.749 299.622L340.452 313.138H321.624ZM398.148 313.138C385.257 313.138 378.812 307.253 378.812 295.482V273.529L395.335 262.708H401.195V313.138H398.148ZM406.859 273.294H425.57V286.38H406.859V273.294ZM406.898 296.458H428.577V299.896C428.577 304.323 427.223 307.591 424.515 309.701C421.572 311.992 416.82 313.138 410.257 313.138H406.898V296.458ZM466.78 273.294H488.499V313.138H466.78V273.294ZM438.734 273.294H460.335V313.138H456.82C447.236 313.138 441.52 309.883 439.671 303.372C439.046 301.263 438.734 298.828 438.734 296.068V273.294ZM527.601 253.333H548.421V313.138H527.601V253.333ZM498.655 293.685C498.655 290.82 499.033 288.164 499.788 285.716C500.544 283.242 501.715 281.081 503.304 279.232C506.741 275.273 511.663 273.294 518.07 273.294H521.077V313.138H519.046C512.484 313.138 507.405 311.341 503.812 307.747C500.374 304.31 498.655 299.622 498.655 293.685ZM570.726 262.591C562.106 262.591 557.796 259.896 557.796 254.505C557.796 251.745 558.825 249.766 560.882 248.568C562.939 247.344 566.077 246.732 570.296 246.732C574.515 246.732 577.627 247.344 579.632 248.568C581.637 249.766 582.64 251.758 582.64 254.544C582.64 257.305 581.702 259.336 579.827 260.638C577.978 261.94 574.945 262.591 570.726 262.591ZM559.984 273.333H580.999V313.138H559.984V273.333ZM620.062 273.294H623.07C629.476 273.294 634.398 275.273 637.835 279.232C640.934 282.826 642.484 287.591 642.484 293.529C642.484 299.57 640.765 304.31 637.327 307.747C633.734 311.341 628.655 313.138 622.093 313.138H620.062V273.294ZM591.312 293.685C591.312 290.82 591.689 288.164 592.445 285.716C593.2 283.242 594.372 281.081 595.96 279.232C599.398 275.273 604.32 273.294 610.726 273.294H613.734V313.138H611.702C605.14 313.138 600.062 311.341 596.468 307.747C593.03 304.31 591.312 299.622 591.312 293.685ZM655.804 288.294C655.726 287.982 655.661 287.643 655.609 287.279L655.452 286.185C655.348 285.404 655.296 284.492 655.296 283.451C655.296 282.383 655.53 281.159 655.999 279.779C656.494 278.398 657.288 277.201 658.382 276.185C660.726 273.997 664.346 272.904 669.241 272.904L698.265 298.411C698.525 299.349 698.655 300.599 698.655 302.161C698.655 303.698 698.395 305.169 697.874 306.576C697.353 307.956 696.52 309.154 695.374 310.169C692.926 312.409 689.359 313.529 684.671 313.529L656.077 288.294H655.804ZM698.929 273.294C699.71 274.492 700.101 276.133 700.101 278.216C700.101 282.07 698.655 284.948 695.765 286.849L680.101 273.294H698.929ZM654.671 313.138C653.89 311.94 653.499 310.3 653.499 308.216C653.499 304.388 654.932 301.523 657.796 299.622L673.499 313.138H654.671Z"/><path fill="#E5E5E5" d="M322.757 288.294L321.787 288.537L321.976 289.294H322.757V288.294ZM322.562 287.279L321.572 287.42L322.562 287.279ZM322.405 286.185L321.414 286.317L321.416 286.326L322.405 286.185ZM322.952 279.779L322.011 279.441L322.008 279.449L322.005 279.457L322.952 279.779ZM325.335 276.185L326.016 276.918L326.017 276.916L325.335 276.185ZM336.195 272.904L336.855 272.153L336.572 271.904H336.195V272.904ZM365.218 298.411L366.182 298.144L366.102 297.857L365.878 297.66L365.218 298.411ZM364.827 306.576L365.763 306.929L365.765 306.923L364.827 306.576ZM362.327 310.169L361.664 309.421L361.658 309.426L361.652 309.432L362.327 310.169ZM351.624 313.529L350.963 314.278L351.246 314.529H351.624V313.529ZM323.03 288.294L323.692 287.545L323.409 287.294H323.03V288.294ZM365.882 273.294L366.72 272.748L366.424 272.294H365.882V273.294ZM362.718 286.849L362.064 287.605L362.636 288.1L363.267 287.685L362.718 286.849ZM347.054 273.294V272.294H344.37L346.4 274.05L347.054 273.294ZM321.624 313.138L320.787 313.684L321.083 314.138H321.624V313.138ZM324.749 299.622L325.402 298.865L324.827 298.37L324.196 298.789L324.749 299.622ZM340.452 313.138V314.138H343.147L341.105 312.38L340.452 313.138ZM323.727 288.052C323.658 287.777 323.6 287.473 323.552 287.137L321.572 287.42C321.628 287.814 321.699 288.187 321.787 288.537L323.727 288.052ZM323.552 287.137L323.395 286.044L321.416 286.326L321.572 287.42L323.552 287.137ZM323.397 286.053C323.3 285.327 323.249 284.461 323.249 283.451H321.249C321.249 284.523 321.303 285.481 321.414 286.317L323.397 286.053ZM323.249 283.451C323.249 282.524 323.454 281.412 323.899 280.1L322.005 279.457C321.513 280.906 321.249 282.242 321.249 283.451H323.249ZM323.894 280.116C324.333 278.889 325.037 277.826 326.016 276.918L324.655 275.452C323.446 276.575 322.561 277.907 322.011 279.441L323.894 280.116ZM326.017 276.916C328.099 274.973 331.422 273.904 336.195 273.904V271.904C331.175 271.904 327.259 273.022 324.653 275.454L326.017 276.916ZM335.534 273.655L364.558 299.163L365.878 297.66L336.855 272.153L335.534 273.655ZM364.254 298.679C364.481 299.493 364.609 300.642 364.609 302.161H366.609C366.609 300.556 366.476 299.205 366.182 298.144L364.254 298.679ZM364.609 302.161C364.609 303.582 364.368 304.936 363.89 306.228L365.765 306.923C366.328 305.403 366.609 303.814 366.609 302.161H364.609ZM363.892 306.223C363.43 307.445 362.693 308.509 361.664 309.421L362.991 310.918C364.253 309.799 365.183 308.467 365.763 306.929L363.892 306.223ZM361.652 309.432C359.453 311.444 356.165 312.529 351.624 312.529V314.529C356.459 314.529 360.306 313.374 363.002 310.907L361.652 309.432ZM352.286 312.779L323.692 287.545L322.369 289.044L350.963 314.278L352.286 312.779ZM323.03 287.294H322.757V289.294H323.03V287.294ZM365.044 273.841C365.682 274.818 366.054 276.243 366.054 278.216H368.054C368.054 276.023 367.645 274.167 366.72 272.748L365.044 273.841ZM366.054 278.216C366.054 281.779 364.742 284.321 362.169 286.013L363.267 287.685C366.475 285.575 368.054 282.362 368.054 278.216H366.054ZM363.372 286.093L347.708 272.538L346.4 274.05L362.064 287.605L363.372 286.093ZM347.054 274.294H365.882V272.294H347.054V274.294ZM322.462 312.592C321.825 311.615 321.452 310.189 321.452 308.216H319.452C319.452 310.41 319.861 312.266 320.787 313.684L322.462 312.592ZM321.452 308.216C321.452 304.678 322.752 302.148 325.302 300.456L324.196 298.789C321.017 300.899 319.452 304.098 319.452 308.216H321.452ZM324.097 300.38L339.8 313.896L341.105 312.38L325.402 298.865L324.097 300.38ZM340.452 312.138H321.624V314.138H340.452V312.138ZM378.812 273.529L378.264 272.692L377.812 272.988V273.529H378.812ZM395.335 262.708V261.708H395.037L394.787 261.872L395.335 262.708ZM401.195 262.708H402.195V261.708H401.195V262.708ZM401.195 313.138V314.138H402.195V313.138H401.195ZM406.859 273.294V272.294H405.859V273.294H406.859ZM425.57 273.294H426.57V272.294H425.57V273.294ZM425.57 286.38V287.38H426.57V286.38H425.57ZM406.859 286.38H405.859V287.38H406.859V286.38ZM406.898 296.458V295.458H405.898V296.458H406.898ZM428.577 296.458H429.577V295.458H428.577V296.458ZM424.515 309.701L425.129 310.49L425.129 310.49L424.515 309.701ZM406.898 313.138H405.898V314.138H406.898V313.138ZM398.148 312.138C391.835 312.138 387.287 310.695 384.32 307.986C381.37 305.292 379.812 301.189 379.812 295.482H377.812C377.812 301.546 379.476 306.271 382.971 309.462C386.449 312.638 391.57 314.138 398.148 314.138V312.138ZM379.812 295.482V273.529H377.812V295.482H379.812ZM379.36 274.365L395.883 263.545L394.787 261.872L378.264 272.692L379.36 274.365ZM395.335 263.708H401.195V261.708H395.335V263.708ZM400.195 262.708V313.138H402.195V262.708H400.195ZM401.195 312.138H398.148V314.138H401.195V312.138ZM406.859 274.294H425.57V272.294H406.859V274.294ZM424.57 273.294V286.38H426.57V273.294H424.57ZM425.57 285.38H406.859V287.38H425.57V285.38ZM407.859 286.38V273.294H405.859V286.38H407.859ZM406.898 297.458H428.577V295.458H406.898V297.458ZM427.577 296.458V299.896H429.577V296.458H427.577ZM427.577 299.896C427.577 304.112 426.298 307.044 423.9 308.912L425.129 310.49C428.149 308.138 429.577 304.534 429.577 299.896H427.577ZM423.9 308.912C421.224 310.996 416.748 312.138 410.257 312.138V314.138C416.891 314.138 421.921 312.988 425.129 310.49L423.9 308.912ZM410.257 312.138H406.898V314.138H410.257V312.138ZM407.898 313.138V296.458H405.898V313.138H407.898ZM466.78 273.294V272.294H465.78V273.294H466.78ZM488.499 273.294H489.499V272.294H488.499V273.294ZM488.499 313.138V314.138H489.499V313.138H488.499ZM466.78 313.138H465.78V314.138H466.78V313.138ZM438.734 273.294V272.294H437.734V273.294H438.734ZM460.335 273.294H461.335V272.294H460.335V273.294ZM460.335 313.138V314.138H461.335V313.138H460.335ZM439.671 303.372L440.633 303.099L440.63 303.088L439.671 303.372ZM466.78 274.294H488.499V272.294H466.78V274.294ZM487.499 273.294V313.138H489.499V273.294H487.499ZM488.499 312.138H466.78V314.138H488.499V312.138ZM467.78 313.138V273.294H465.78V313.138H467.78ZM438.734 274.294H460.335V272.294H438.734V274.294ZM459.335 273.294V313.138H461.335V273.294H459.335ZM460.335 312.138H456.82V314.138H460.335V312.138ZM456.82 312.138C452.127 312.138 448.494 311.339 445.84 309.828C443.217 308.334 441.488 306.11 440.633 303.099L438.709 303.646C439.703 307.145 441.757 309.804 444.85 311.566C447.912 313.31 451.928 314.138 456.82 314.138V312.138ZM440.63 303.088C440.038 301.091 439.734 298.755 439.734 296.068H437.734C437.734 298.901 438.054 301.435 438.712 303.657L440.63 303.088ZM439.734 296.068V273.294H437.734V296.068H439.734ZM527.601 253.333V252.333H526.601V253.333H527.601ZM548.421 253.333H549.421V252.333H548.421V253.333ZM548.421 313.138V314.138H549.421V313.138H548.421ZM527.601 313.138H526.601V314.138H527.601V313.138ZM499.788 285.716L500.744 286.011L500.745 286.008L499.788 285.716ZM503.304 279.232L502.549 278.576L502.545 278.58L503.304 279.232ZM521.077 273.294H522.077V272.294H521.077V273.294ZM521.077 313.138V314.138H522.077V313.138H521.077ZM527.601 254.333H548.421V252.333H527.601V254.333ZM547.421 253.333V313.138H549.421V253.333H547.421ZM548.421 312.138H527.601V314.138H548.421V312.138ZM528.601 313.138V253.333H526.601V313.138H528.601ZM499.655 293.685C499.655 290.909 500.021 288.353 500.744 286.011L498.833 285.421C498.045 287.975 497.655 290.732 497.655 293.685H499.655ZM500.745 286.008C501.462 283.658 502.569 281.621 504.062 279.883L502.545 278.58C500.861 280.54 499.625 282.826 498.832 285.424L500.745 286.008ZM504.059 279.887C507.265 276.196 511.883 274.294 518.07 274.294V272.294C511.444 272.294 506.218 274.351 502.549 278.576L504.059 279.887ZM518.07 274.294H521.077V272.294H518.07V274.294ZM520.077 273.294V313.138H522.077V273.294H520.077ZM521.077 312.138H519.046V314.138H521.077V312.138ZM519.046 312.138C512.668 312.138 507.875 310.396 504.519 307.04L503.105 308.455C506.936 312.286 512.299 314.138 519.046 314.138V312.138ZM504.519 307.04C501.309 303.83 499.655 299.42 499.655 293.685H497.655C497.655 299.825 499.44 304.79 503.105 308.455L504.519 307.04ZM560.882 248.568L561.385 249.432L561.393 249.427L560.882 248.568ZM579.632 248.568L579.111 249.421L579.119 249.426L579.632 248.568ZM579.827 260.638L579.257 259.817L579.252 259.82L579.827 260.638ZM559.984 273.333V272.333H558.984V273.333H559.984ZM580.999 273.333H581.999V272.333H580.999V273.333ZM580.999 313.138V314.138H581.999V313.138H580.999ZM559.984 313.138H558.984V314.138H559.984V313.138ZM570.726 261.591C566.488 261.591 563.479 260.923 561.559 259.722C559.717 258.57 558.796 256.881 558.796 254.505H556.796C556.796 257.52 558.03 259.874 560.498 261.418C562.888 262.912 566.344 263.591 570.726 263.591V261.591ZM558.796 254.505C558.796 252.033 559.69 250.419 561.385 249.432L560.379 247.704C557.96 249.112 556.796 251.457 556.796 254.505H558.796ZM561.393 249.427C563.218 248.341 566.138 247.732 570.296 247.732V245.732C566.016 245.732 562.66 246.346 560.371 247.708L561.393 249.427ZM570.296 247.732C574.457 247.732 577.344 248.342 579.111 249.421L580.153 247.714C577.91 246.345 574.573 245.732 570.296 245.732V247.732ZM579.119 249.426C580.76 250.406 581.64 252.03 581.64 254.544H583.64C583.64 251.486 582.515 249.125 580.145 247.709L579.119 249.426ZM581.64 254.544C581.64 257.055 580.805 258.742 579.257 259.817L580.398 261.459C582.6 259.93 583.64 257.554 583.64 254.544H581.64ZM579.252 259.82C577.664 260.939 574.892 261.591 570.726 261.591V263.591C574.997 263.591 578.293 262.942 580.403 261.456L579.252 259.82ZM559.984 274.333H580.999V272.333H559.984V274.333ZM579.999 273.333V313.138H581.999V273.333H579.999ZM580.999 312.138H559.984V314.138H580.999V312.138ZM560.984 313.138V273.333H558.984V313.138H560.984ZM620.062 273.294V272.294H619.062V273.294H620.062ZM637.835 279.232L638.592 278.579L638.59 278.576L637.835 279.232ZM620.062 313.138H619.062V314.138H620.062V313.138ZM592.445 285.716L593.4 286.011L593.401 286.008L592.445 285.716ZM595.96 279.232L595.205 278.576L595.202 278.58L595.96 279.232ZM613.734 273.294H614.734V272.294H613.734V273.294ZM613.734 313.138V314.138H614.734V313.138H613.734ZM620.062 274.294H623.07V272.294H620.062V274.294ZM623.07 274.294C629.256 274.294 633.874 276.196 637.08 279.887L638.59 278.576C634.921 274.351 629.695 272.294 623.07 272.294V274.294ZM637.078 279.885C639.984 283.255 641.484 287.769 641.484 293.529H643.484C643.484 287.414 641.884 282.396 638.592 278.579L637.078 279.885ZM641.484 293.529C641.484 299.373 639.827 303.834 636.62 307.04L638.034 308.455C641.703 304.786 643.484 299.767 643.484 293.529H641.484ZM636.62 307.04C633.264 310.396 628.471 312.138 622.093 312.138V314.138C628.84 314.138 634.203 312.286 638.034 308.455L636.62 307.04ZM622.093 312.138H620.062V314.138H622.093V312.138ZM621.062 313.138V273.294H619.062V313.138H621.062ZM592.312 293.685C592.312 290.909 592.678 288.353 593.4 286.011L591.489 285.421C590.701 287.975 590.312 290.732 590.312 293.685H592.312ZM593.401 286.008C594.118 283.658 595.226 281.621 596.719 279.883L595.202 278.58C593.518 280.54 592.281 282.826 591.488 285.424L593.401 286.008ZM596.715 279.887C599.921 276.196 604.539 274.294 610.726 274.294V272.294C604.1 272.294 598.874 274.351 595.205 278.576L596.715 279.887ZM610.726 274.294H613.734V272.294H610.726V274.294ZM612.734 273.294V313.138H614.734V273.294H612.734ZM613.734 312.138H611.702V314.138H613.734V312.138ZM611.702 312.138C605.324 312.138 600.531 310.396 597.175 307.04L595.761 308.455C599.592 312.286 604.955 314.138 611.702 314.138V312.138ZM597.175 307.04C593.965 303.83 592.312 299.42 592.312 293.685H590.312C590.312 299.825 592.096 304.79 595.761 308.455L597.175 307.04ZM655.804 288.294L654.834 288.537L655.023 289.294H655.804V288.294ZM655.609 287.279L654.619 287.42L655.609 287.279ZM655.452 286.185L654.461 286.317L654.462 286.326L655.452 286.185ZM655.999 279.779L655.058 279.441L655.055 279.449L655.052 279.457L655.999 279.779ZM658.382 276.185L659.062 276.918L659.064 276.916L658.382 276.185ZM669.241 272.904L669.902 272.153L669.618 271.904H669.241V272.904ZM698.265 298.411L699.228 298.144L699.149 297.857L698.925 297.66L698.265 298.411ZM697.874 306.576L698.81 306.929L698.812 306.923L697.874 306.576ZM695.374 310.169L694.711 309.421L694.705 309.426L694.699 309.432L695.374 310.169ZM684.671 313.529L684.009 314.278L684.293 314.529H684.671V313.529ZM656.077 288.294L656.739 287.545L656.456 287.294H656.077V288.294ZM698.929 273.294L699.767 272.748L699.471 272.294H698.929V273.294ZM695.765 286.849L695.111 287.605L695.682 288.1L696.314 287.685L695.765 286.849ZM680.101 273.294V272.294H677.417L679.446 274.05L680.101 273.294ZM654.671 313.138L653.833 313.684L654.129 314.138H654.671V313.138ZM657.796 299.622L658.448 298.865L657.874 298.37L657.243 298.789L657.796 299.622ZM673.499 313.138V314.138H676.194L674.152 312.38L673.499 313.138ZM656.774 288.052C656.705 287.777 656.646 287.473 656.599 287.137L654.619 287.42C654.675 287.814 654.746 288.187 654.834 288.537L656.774 288.052ZM656.599 287.137L656.442 286.044L654.462 286.326L654.619 287.42L656.599 287.137ZM656.444 286.053C656.347 285.327 656.296 284.461 656.296 283.451H654.296C654.296 284.523 654.35 285.481 654.461 286.317L656.444 286.053ZM656.296 283.451C656.296 282.524 656.501 281.412 656.946 280.1L655.052 279.457C654.56 280.906 654.296 282.242 654.296 283.451H656.296ZM656.941 280.116C657.38 278.889 658.084 277.826 659.062 276.918L657.702 275.452C656.493 276.575 655.608 277.907 655.058 279.441L656.941 280.116ZM659.064 276.916C661.146 274.973 664.469 273.904 669.241 273.904V271.904C664.222 271.904 660.306 273.022 657.7 275.454L659.064 276.916ZM668.581 273.655L697.605 299.163L698.925 297.66L669.902 272.153L668.581 273.655ZM697.301 298.679C697.527 299.493 697.655 300.642 697.655 302.161H699.655C699.655 300.556 699.523 299.205 699.228 298.144L697.301 298.679ZM697.655 302.161C697.655 303.582 697.415 304.936 696.936 306.228L698.812 306.923C699.375 305.403 699.655 303.814 699.655 302.161H697.655ZM696.939 306.223C696.477 307.445 695.74 308.509 694.711 309.421L696.038 310.918C697.3 309.799 698.229 308.467 698.81 306.929L696.939 306.223ZM694.699 309.432C692.5 311.444 689.212 312.529 684.671 312.529V314.529C689.506 314.529 693.353 313.374 696.049 310.907L694.699 309.432ZM685.333 312.779L656.739 287.545L655.416 289.044L684.009 314.278L685.333 312.779ZM656.077 287.294H655.804V289.294H656.077V287.294ZM698.091 273.841C698.729 274.818 699.101 276.243 699.101 278.216H701.101C701.101 276.023 700.692 274.167 699.767 272.748L698.091 273.841ZM699.101 278.216C699.101 281.779 697.789 284.321 695.215 286.013L696.314 287.685C699.522 285.575 701.101 282.362 701.101 278.216H699.101ZM696.419 286.093L680.755 272.538L679.446 274.05L695.111 287.605L696.419 286.093ZM680.101 274.294H698.929V272.294H680.101V274.294ZM655.509 312.592C654.871 311.615 654.499 310.189 654.499 308.216H652.499C652.499 310.41 652.908 312.266 653.833 313.684L655.509 312.592ZM654.499 308.216C654.499 304.678 655.799 302.148 658.349 300.456L657.243 298.789C654.064 300.899 652.499 304.098 652.499 308.216H654.499ZM657.144 300.38L672.847 313.896L674.152 312.38L658.448 298.865L657.144 300.38ZM673.499 312.138H654.671V314.138H673.499V312.138Z"/></g><rect width="52.718" height="47.028" x="278.641" y="162.095" fill="#31C2F1"/><rect width="40.552" height="38.022" x="530.065" y="170.1" fill="#33C7F8"/><rect width="64.884" height="56.033" x="422.602" y="205.12" fill="#3395F8"/><rect width="67.925" height="65.038" x="389.146" y="170.1" fill="#33C7F8"/><g filter="url(#filter1_d)"><path fill="#100A25" d="M435.47 321.277H430.9V317.146H435.47V321.277ZM435.47 344.181H430.9V325.179H435.47V344.181ZM460.923 344.181H456.353V333.634C456.353 333.036 456.247 332.503 456.036 332.034C455.837 331.554 455.562 331.144 455.21 330.804C454.859 330.464 454.443 330.206 453.962 330.031C453.493 329.843 452.984 329.749 452.433 329.749H444.435V344.181H439.864V327.447C439.864 327.13 439.923 326.837 440.04 326.568C440.157 326.286 440.321 326.046 440.532 325.847C440.743 325.636 440.989 325.472 441.271 325.355C441.552 325.238 441.851 325.179 442.167 325.179H452.468C453.042 325.179 453.646 325.243 454.278 325.372C454.923 325.501 455.556 325.712 456.177 326.005C456.81 326.286 457.407 326.65 457.97 327.095C458.544 327.529 459.048 328.062 459.482 328.695C459.927 329.316 460.278 330.036 460.536 330.857C460.794 331.677 460.923 332.603 460.923 333.634V344.181ZM485.989 344.181H481.419V333.634C481.419 333.036 481.314 332.503 481.103 332.034C480.903 331.554 480.628 331.144 480.277 330.804C479.925 330.464 479.509 330.206 479.028 330.031C478.56 329.843 478.05 329.749 477.499 329.749H469.501V344.181H464.931V327.447C464.931 327.13 464.989 326.837 465.107 326.568C465.224 326.286 465.388 326.046 465.599 325.847C465.81 325.636 466.056 325.472 466.337 325.355C466.618 325.238 466.917 325.179 467.234 325.179H477.534C478.109 325.179 478.712 325.243 479.345 325.372C479.989 325.501 480.622 325.712 481.243 326.005C481.876 326.286 482.474 326.65 483.036 327.095C483.611 327.529 484.114 328.062 484.548 328.695C484.993 329.316 485.345 330.036 485.603 330.857C485.861 331.677 485.989 332.603 485.989 333.634V344.181ZM510.669 337.765C510.669 338.55 510.569 339.259 510.37 339.892C510.171 340.513 509.907 341.064 509.579 341.544C509.251 342.013 508.87 342.417 508.437 342.757C508.003 343.085 507.546 343.355 507.066 343.566C506.597 343.777 506.116 343.935 505.624 344.04C505.144 344.134 504.687 344.181 504.253 344.181H496.009C495.376 344.181 494.685 344.07 493.935 343.847C493.185 343.624 492.487 343.261 491.843 342.757C491.21 342.242 490.677 341.579 490.243 340.771C489.821 339.951 489.611 338.949 489.611 337.765V331.577C489.611 330.406 489.821 329.415 490.243 328.607C490.677 327.786 491.21 327.124 491.843 326.62C492.487 326.105 493.185 325.736 493.935 325.513C494.685 325.29 495.376 325.179 496.009 325.179H504.253C505.425 325.179 506.421 325.39 507.241 325.812C508.062 326.234 508.724 326.767 509.228 327.411C509.732 328.044 510.095 328.736 510.318 329.486C510.552 330.236 510.669 330.933 510.669 331.577V337.765ZM506.099 331.613C506.099 330.98 505.941 330.511 505.624 330.206C505.308 329.902 504.851 329.749 504.253 329.749H496.044C495.435 329.749 494.972 329.908 494.655 330.224C494.339 330.529 494.181 330.98 494.181 331.577V337.765C494.181 338.363 494.339 338.82 494.655 339.136C494.972 339.452 495.435 339.611 496.044 339.611H504.253C504.874 339.611 505.337 339.452 505.642 339.136C505.946 338.82 506.099 338.363 506.099 337.765V331.613ZM537.247 325.179C536.732 326.784 536.128 328.367 535.437 329.925C534.745 331.484 533.948 332.972 533.046 334.39C532.155 335.796 531.153 337.103 530.04 338.31C528.939 339.505 527.714 340.542 526.366 341.421C525.03 342.288 523.571 342.974 521.989 343.478C520.419 343.97 518.714 344.216 516.874 344.216C516.558 344.216 516.259 344.158 515.978 344.04C515.696 343.923 515.45 343.765 515.239 343.566C515.028 343.355 514.864 343.115 514.747 342.845C514.63 342.564 514.571 342.265 514.571 341.949V325.179H519.142V339.47C520.255 339.47 521.321 339.23 522.341 338.749C523.372 338.269 524.345 337.636 525.259 336.851C526.173 336.054 527.017 335.152 527.79 334.144C528.575 333.136 529.273 332.105 529.882 331.05C530.491 329.984 531.007 328.941 531.429 327.921C531.862 326.902 532.185 325.988 532.396 325.179H537.247ZM557.919 337.888C557.919 338.521 557.808 339.206 557.585 339.945C557.362 340.671 556.999 341.351 556.495 341.984C556.003 342.605 555.353 343.126 554.544 343.548C553.747 343.97 552.775 344.181 551.626 344.181H543.382C542.749 344.181 542.064 344.07 541.325 343.847C540.599 343.624 539.919 343.267 539.286 342.775C538.665 342.271 538.144 341.62 537.722 340.824C537.3 340.015 537.089 339.036 537.089 337.888C537.089 337.255 537.2 336.57 537.423 335.831C537.646 335.093 538.003 334.413 538.495 333.792C538.999 333.159 539.65 332.632 540.446 332.21C541.255 331.788 542.234 331.577 543.382 331.577H551.626V335.937H543.382C542.761 335.937 542.28 336.13 541.941 336.517C541.601 336.892 541.431 337.361 541.431 337.923C541.431 338.521 541.624 338.99 542.011 339.329C542.409 339.658 542.878 339.822 543.417 339.822H551.626C552.247 339.822 552.728 339.634 553.068 339.259C553.407 338.884 553.577 338.415 553.577 337.853V331.472C553.577 330.874 553.39 330.4 553.015 330.048C552.652 329.697 552.189 329.521 551.626 329.521H541.589V325.179H551.626C552.259 325.179 552.939 325.29 553.665 325.513C554.403 325.736 555.083 326.099 555.704 326.603C556.337 327.095 556.864 327.745 557.286 328.554C557.708 329.351 557.919 330.324 557.919 331.472V337.888ZM579.03 329.749H571.05V344.181H566.427V329.749H560.486V325.179H566.427V318.974H571.05V325.179H579.03V329.749ZM602.409 331.472C602.409 332.105 602.298 332.79 602.075 333.529C601.853 334.255 601.489 334.935 600.986 335.568C600.493 336.189 599.843 336.71 599.034 337.132C598.237 337.554 597.265 337.765 596.116 337.765H587.872V333.423H596.116C596.737 333.423 597.218 333.236 597.558 332.861C597.898 332.474 598.068 331.999 598.068 331.437C598.068 330.839 597.874 330.37 597.487 330.031C597.112 329.691 596.655 329.521 596.116 329.521H587.872C587.251 329.521 586.771 329.714 586.431 330.101C586.091 330.476 585.921 330.945 585.921 331.507V337.888C585.921 338.497 586.109 338.972 586.484 339.312C586.87 339.652 587.345 339.822 587.907 339.822H596.116V344.181H587.872C587.239 344.181 586.554 344.07 585.816 343.847C585.089 343.624 584.409 343.267 583.777 342.775C583.155 342.271 582.634 341.62 582.212 340.824C581.79 340.015 581.579 339.036 581.579 337.888V331.472C581.579 330.839 581.691 330.159 581.913 329.433C582.136 328.695 582.493 328.015 582.986 327.394C583.489 326.761 584.14 326.234 584.937 325.812C585.745 325.39 586.724 325.179 587.872 325.179H596.116C596.749 325.179 597.429 325.29 598.155 325.513C598.894 325.736 599.573 326.099 600.194 326.603C600.827 327.095 601.355 327.745 601.777 328.554C602.198 329.351 602.409 330.324 602.409 331.472ZM638.04 337.765C638.04 338.55 637.941 339.259 637.741 339.892C637.542 340.513 637.278 341.064 636.95 341.544C636.622 342.013 636.241 342.417 635.808 342.757C635.374 343.085 634.917 343.355 634.437 343.566C633.968 343.777 633.487 343.935 632.995 344.04C632.515 344.134 632.058 344.181 631.624 344.181H623.38C622.595 344.181 621.892 344.081 621.271 343.882C620.65 343.683 620.099 343.419 619.618 343.091C619.15 342.751 618.745 342.365 618.405 341.931C618.077 341.497 617.808 341.046 617.597 340.577C617.386 340.097 617.228 339.617 617.122 339.136C617.028 338.644 616.982 338.187 616.982 337.765V331.577C616.982 330.406 617.193 329.415 617.614 328.607C618.048 327.786 618.581 327.124 619.214 326.62C619.859 326.105 620.556 325.736 621.306 325.513C622.056 325.29 622.747 325.179 623.38 325.179H631.624V329.749H623.415C622.806 329.749 622.343 329.908 622.027 330.224C621.71 330.529 621.552 330.98 621.552 331.577V337.73C621.552 338.351 621.704 338.82 622.009 339.136C622.325 339.452 622.782 339.611 623.38 339.611H631.624C632.245 339.611 632.708 339.452 633.013 339.136C633.318 338.82 633.47 338.363 633.47 337.765V317.146H638.04V337.765ZM647.04 321.277H642.47V317.146H647.04V321.277ZM647.04 344.181H642.47V325.179H647.04V344.181ZM672.107 346.009C672.107 346.794 672.007 347.497 671.808 348.118C671.609 348.751 671.345 349.302 671.017 349.771C670.689 350.251 670.308 350.656 669.874 350.984C669.441 351.324 668.984 351.599 668.503 351.81C668.034 352.021 667.554 352.173 667.062 352.267C666.581 352.372 666.124 352.425 665.691 352.425H657.446V347.855H665.691C666.312 347.855 666.775 347.697 667.079 347.38C667.384 347.064 667.536 346.607 667.536 346.009V331.577C667.536 330.98 667.384 330.529 667.079 330.224C666.775 329.908 666.312 329.749 665.691 329.749H657.446C656.884 329.749 656.439 329.925 656.111 330.277C655.782 330.617 655.618 331.05 655.618 331.577V337.765C655.618 338.363 655.777 338.82 656.093 339.136C656.409 339.452 656.872 339.611 657.482 339.611H665.691V344.181H657.446C657.013 344.181 656.556 344.134 656.075 344.04C655.595 343.935 655.114 343.777 654.634 343.566C654.165 343.355 653.714 343.085 653.28 342.757C652.847 342.417 652.466 342.013 652.138 341.544C651.81 341.064 651.546 340.513 651.347 339.892C651.148 339.259 651.048 338.55 651.048 337.765V331.577C651.048 331.144 651.095 330.687 651.189 330.206C651.294 329.726 651.452 329.251 651.663 328.783C651.874 328.302 652.144 327.845 652.472 327.411C652.812 326.978 653.216 326.597 653.685 326.269C654.165 325.941 654.716 325.677 655.337 325.478C655.958 325.279 656.661 325.179 657.446 325.179H665.691C666.124 325.179 666.581 325.232 667.062 325.337C667.554 325.431 668.034 325.583 668.503 325.794C668.984 326.005 669.441 326.281 669.874 326.62C670.308 326.949 670.689 327.353 671.017 327.833C671.345 328.302 671.609 328.847 671.808 329.468C672.007 330.089 672.107 330.792 672.107 331.577V346.009ZM680.931 321.277H676.361V317.146H680.931V321.277ZM680.931 344.181H676.361V325.179H680.931V344.181ZM702.605 329.749H694.624V344.181H690.001V329.749H684.06V325.179H690.001V318.974H694.624V325.179H702.605V329.749ZM724.138 337.888C724.138 338.521 724.027 339.206 723.804 339.945C723.581 340.671 723.218 341.351 722.714 341.984C722.222 342.605 721.571 343.126 720.763 343.548C719.966 343.97 718.993 344.181 717.845 344.181H709.601C708.968 344.181 708.282 344.07 707.544 343.847C706.818 343.624 706.138 343.267 705.505 342.775C704.884 342.271 704.362 341.62 703.941 340.824C703.519 340.015 703.308 339.036 703.308 337.888C703.308 337.255 703.419 336.57 703.642 335.831C703.864 335.093 704.222 334.413 704.714 333.792C705.218 333.159 705.868 332.632 706.665 332.21C707.474 331.788 708.452 331.577 709.601 331.577H717.845V335.937H709.601C708.98 335.937 708.499 336.13 708.159 336.517C707.819 336.892 707.65 337.361 707.65 337.923C707.65 338.521 707.843 338.99 708.23 339.329C708.628 339.658 709.097 339.822 709.636 339.822H717.845C718.466 339.822 718.946 339.634 719.286 339.259C719.626 338.884 719.796 338.415 719.796 337.853V331.472C719.796 330.874 719.609 330.4 719.234 330.048C718.87 329.697 718.407 329.521 717.845 329.521H707.808V325.179H717.845C718.478 325.179 719.157 325.29 719.884 325.513C720.622 325.736 721.302 326.099 721.923 326.603C722.556 327.095 723.083 327.745 723.505 328.554C723.927 329.351 724.138 330.324 724.138 331.472V337.888ZM736.39 344.181H734.351C733.694 344.181 732.991 344.07 732.241 343.847C731.503 343.624 730.812 343.261 730.167 342.757C729.523 342.242 728.989 341.579 728.568 340.771C728.146 339.951 727.935 338.949 727.935 337.765V317.146H732.505V337.765C732.505 338.327 732.681 338.779 733.032 339.118C733.384 339.447 733.823 339.611 734.351 339.611H736.39V344.181ZM747.675 344.181H745.636C744.98 344.181 744.277 344.07 743.527 343.847C742.788 343.624 742.097 343.261 741.452 342.757C740.808 342.242 740.275 341.579 739.853 340.771C739.431 339.951 739.22 338.949 739.22 337.765V317.146H743.79V337.765C743.79 338.327 743.966 338.779 744.318 339.118C744.669 339.447 745.109 339.611 745.636 339.611H747.675V344.181ZM771.564 346.009C771.564 346.794 771.464 347.497 771.265 348.118C771.066 348.751 770.802 349.302 770.474 349.771C770.146 350.251 769.765 350.656 769.331 350.984C768.898 351.324 768.441 351.599 767.96 351.81C767.491 352.021 767.017 352.173 766.536 352.267C766.056 352.372 765.599 352.425 765.165 352.425H756.921V347.855H765.165C765.775 347.855 766.232 347.697 766.536 347.38C766.841 347.064 766.993 346.607 766.993 346.009V325.179H771.564V346.009ZM765.165 344.181H756.921C756.265 344.181 755.562 344.07 754.812 343.847C754.073 343.624 753.382 343.261 752.737 342.757C752.093 342.242 751.56 341.579 751.138 340.771C750.716 339.951 750.505 338.949 750.505 337.765V325.179H755.075V337.765C755.075 338.363 755.234 338.82 755.55 339.136C755.866 339.452 756.335 339.611 756.956 339.611H765.165V344.181ZM779.737 341.878C779.737 342.195 779.673 342.493 779.544 342.775C779.427 343.044 779.263 343.284 779.052 343.495C778.853 343.695 778.612 343.853 778.331 343.97C778.062 344.087 777.775 344.146 777.47 344.146C777.153 344.146 776.855 344.087 776.573 343.97C776.304 343.853 776.064 343.695 775.853 343.495C775.653 343.284 775.495 343.044 775.378 342.775C775.261 342.493 775.202 342.195 775.202 341.878C775.202 341.574 775.261 341.286 775.378 341.017C775.495 340.736 775.653 340.495 775.853 340.296C776.064 340.085 776.304 339.921 776.573 339.804C776.855 339.675 777.153 339.611 777.47 339.611C777.775 339.611 778.062 339.675 778.331 339.804C778.612 339.921 778.853 340.085 779.052 340.296C779.263 340.495 779.427 340.736 779.544 341.017C779.673 341.286 779.737 341.574 779.737 341.878ZM787.12 341.878C787.12 342.195 787.056 342.493 786.927 342.775C786.81 343.044 786.646 343.284 786.435 343.495C786.236 343.695 785.995 343.853 785.714 343.97C785.444 344.087 785.157 344.146 784.853 344.146C784.536 344.146 784.237 344.087 783.956 343.97C783.687 343.853 783.446 343.695 783.236 343.495C783.036 343.284 782.878 343.044 782.761 342.775C782.644 342.493 782.585 342.195 782.585 341.878C782.585 341.574 782.644 341.286 782.761 341.017C782.878 340.736 783.036 340.495 783.236 340.296C783.446 340.085 783.687 339.921 783.956 339.804C784.237 339.675 784.536 339.611 784.853 339.611C785.157 339.611 785.444 339.675 785.714 339.804C785.995 339.921 786.236 340.085 786.435 340.296C786.646 340.495 786.81 340.736 786.927 341.017C787.056 341.286 787.12 341.574 787.12 341.878ZM794.503 341.878C794.503 342.195 794.439 342.493 794.31 342.775C794.193 343.044 794.028 343.284 793.818 343.495C793.618 343.695 793.378 343.853 793.097 343.97C792.827 344.087 792.54 344.146 792.236 344.146C791.919 344.146 791.62 344.087 791.339 343.97C791.069 343.853 790.829 343.695 790.618 343.495C790.419 343.284 790.261 343.044 790.144 342.775C790.027 342.493 789.968 342.195 789.968 341.878C789.968 341.574 790.027 341.286 790.144 341.017C790.261 340.736 790.419 340.495 790.618 340.296C790.829 340.085 791.069 339.921 791.339 339.804C791.62 339.675 791.919 339.611 792.236 339.611C792.54 339.611 792.827 339.675 793.097 339.804C793.378 339.921 793.618 340.085 793.818 340.296C794.028 340.495 794.193 340.736 794.31 341.017C794.439 341.286 794.503 341.574 794.503 341.878Z"/></g><defs><filter id="filter0_di" width="529.03" height="139.619" x="191.071" y="203.476" color-interpolation-filters="sRGB" filterUnits="userSpaceOnUse"><feFlood flood-opacity="0" result="BackgroundImageFix"/><feColorMatrix in="SourceAlpha" type="matrix" values="0 0 0 0 0 0 0 0 0 0 0 0 0 0 0 0 0 0 127 0"/><feOffset dx="10" dy="-5"/><feGaussianBlur stdDeviation="4.5"/><feColorMatrix type="matrix" values="0 0 0 0 0 0 0 0 0 0 0 0 0 0 0 0 0 0 0.25 0"/><feBlend in2="BackgroundImageFix" mode="normal" result="effect1_dropShadow"/><feBlend in="SourceGraphic" in2="effect1_dropShadow" mode="normal" result="shape"/><feColorMatrix in="SourceAlpha" result="hardAlpha" type="matrix" values="0 0 0 0 0 0 0 0 0 0 0 0 0 0 0 0 0 0 127 0"/><feOffset dy="4"/><feGaussianBlur stdDeviation="2"/><feComposite in2="hardAlpha" k2="-1" k3="1" operator="arithmetic"/><feColorMatrix type="matrix" values="0 0 0 0 0.137255 0 0 0 0 0.403922 0 0 0 0 0.666667 0 0 0 1 0"/><feBlend in2="shape" mode="normal" result="effect2_innerShadow"/></filter><filter id="filter1_d" width="371.604" height="43.279" x="426.9" y="317.146" color-interpolation-filters="sRGB" filterUnits="userSpaceOnUse"><feFlood flood-opacity="0" result="BackgroundImageFix"/><feColorMatrix in="SourceAlpha" type="matrix" values="0 0 0 0 0 0 0 0 0 0 0 0 0 0 0 0 0 0 127 0"/><feOffset dy="4"/><feGaussianBlur stdDeviation="2"/><feColorMatrix type="matrix" values="0 0 0 0 0 0 0 0 0 0 0 0 0 0 0 0 0 0 0.25 0"/><feBlend in2="BackgroundImageFix" mode="normal" result="effect1_dropShadow"/><feBlend in="SourceGraphic" in2="effect1_dropShadow" mode="normal" result="shape"/></filter></defs></svg>