<?xml version="1.0" standalone="no"?>
<!DOCTYPE svg PUBLIC "-//W3C//DTD SVG 20010904//EN"
 "http://www.w3.org/TR/2001/REC-SVG-20010904/DTD/svg10.dtd">
<svg version="1.0" xmlns="http://www.w3.org/2000/svg"
 width="819.000000pt" height="819.000000pt" viewBox="0 0 819.000000 819.000000"
 preserveAspectRatio="xMidYMid meet">
<metadata>
Created by potrace 1.11, written by Peter Selinger 2001-2013
</metadata>
<g transform="translate(0.000000,819.000000) scale(0.100000,-0.100000)"
fill="#000000" stroke="none">
<path d="M1370 5862 c0 -10 4 -43 10 -73 5 -30 12 -72 15 -94 3 -22 8 -53 11
-70 3 -16 7 -48 9 -70 2 -22 6 -49 8 -60 5 -22 17 -103 23 -150 2 -16 6 -46 9
-65 3 -19 8 -50 10 -68 8 -65 16 -117 20 -132 2 -8 7 -40 10 -70 3 -30 8 -62
10 -70 2 -8 7 -40 10 -70 3 -30 8 -62 10 -70 2 -8 7 -37 10 -65 3 -27 7 -61
10 -75 2 -14 7 -42 10 -62 3 -21 7 -55 10 -75 3 -21 8 -49 10 -63 3 -14 7 -45
10 -70 3 -25 7 -55 9 -67 3 -11 7 -43 11 -70 10 -69 15 -104 21 -138 3 -16 7
-46 9 -65 2 -19 6 -46 9 -60 2 -14 7 -47 11 -75 6 -53 12 -92 20 -140 3 -16 8
-49 10 -73 2 -23 6 -50 9 -60 3 -9 8 -41 11 -71 4 -30 9 -63 11 -75 2 -11 6
-36 8 -56 13 -93 17 -117 20 -135 2 -11 7 -47 11 -80 3 -32 8 -62 10 -65 1 -3
6 -32 9 -65 4 -33 9 -67 11 -75 2 -8 6 -35 9 -60 3 -25 8 -54 10 -65 2 -11 7
-42 10 -70 4 -27 10 -66 13 -85 3 -19 7 -48 8 -65 2 -16 6 -41 9 -55 2 -14 7
-45 11 -70 9 -74 12 -85 22 -83 8 1 364 225 523 328 290 188 432 275 441 270
7 -5 333 -473 364 -524 6 -9 22 -32 38 -52 15 -20 27 -41 27 -47 0 -6 4 -12 8
-14 4 -1 50 -65 101 -140 l93 -136 47 33 c25 18 78 55 117 81 39 27 112 77
162 112 51 34 92 65 92 68 0 3 -18 29 -40 59 -22 30 -40 59 -40 65 0 5 -4 10
-10 10 -5 0 -10 6 -10 14 0 8 -4 16 -8 18 -5 1 -46 59 -93 128 -46 69 -86 127
-89 130 -3 3 -28 39 -56 80 -180 267 -249 367 -261 381 -12 14 6 28 162 127
97 62 180 112 185 112 6 0 10 4 10 9 0 5 14 14 30 21 17 7 30 16 30 21 0 5 11
11 25 15 14 3 25 9 25 13 0 4 12 13 26 20 23 10 30 9 48 -8 26 -24 112 -62
121 -53 3 3 23 5 43 4 l37 -3 -1 68 c0 37 4 76 9 87 6 13 6 16 -2 12 -6 -4
-11 0 -11 9 0 10 5 13 13 9 9 -6 9 -4 -1 8 -11 14 -8 19 18 38 16 12 30 18 30
13 0 -4 4 -1 9 7 12 17 110 23 130 6 12 -8 13 -8 7 2 -5 9 -3 13 5 11 30 -4
38 2 37 30 -1 15 2 33 6 40 4 6 2 11 -3 11 -18 0 -12 18 7 23 15 4 15 5 -2 6
-15 1 -16 4 -6 16 7 8 9 16 4 16 -5 1 -20 3 -34 6 -23 3 -47 4 -75 1 -16 -2
-80 31 -103 52 -11 10 -22 16 -25 13 -4 -3 -9 6 -13 21 -5 21 -12 26 -35 26
-16 0 -29 5 -29 12 0 6 -3 8 -7 5 -3 -4 -21 4 -39 18 -18 14 -37 25 -42 25 -6
0 -12 4 -14 8 -1 4 -57 44 -123 87 -66 44 -126 86 -133 93 -7 6 -19 12 -27 12
-7 0 -15 4 -17 8 -1 5 -79 60 -173 122 -93 62 -174 116 -179 120 -4 5 16 8 45
8 28 1 55 5 58 10 3 6 6 111 5 234 l0 223 -264 0 -265 0 1 -92 c0 -98 -7 -111
-41 -73 -10 11 -22 20 -26 20 -5 0 -47 27 -94 60 -47 33 -89 60 -93 60 -5 0
-17 8 -28 18 -20 18 -282 194 -299 201 -5 2 -12 7 -15 11 -3 3 -159 110 -348
236 -501 335 -472 317 -472 296z"/>
<path d="M3891 4725 l-1 -325 68 0 c37 -1 112 -2 167 -3 l100 -2 1 -115 c1
-63 2 -122 3 -130 1 -13 42 -15 310 -14 171 1 316 4 323 7 11 4 13 59 13 278
l0 274 -153 3 -152 3 0 174 0 175 -339 0 -339 0 -1 -325z"/>
<path d="M5300 4860 c1 -170 3 -190 18 -191 22 -1 330 -1 362 0 l26 1 -1 188
0 187 -203 3 -203 2 1 -190z"/>
<path d="M5909 4313 c-13 -16 -12 -17 4 -4 16 13 21 21 13 21 -2 0 -10 -8 -17
-17z"/>
<path d="M5732 4310 c5 -12 -2 -15 -31 -15 -57 2 -113 -19 -123 -44 -4 -12
-12 -19 -18 -16 -5 3 -10 2 -10 -4 0 -5 4 -12 10 -16 5 -3 7 -12 3 -20 -6 -17
51 -74 76 -76 9 -1 32 -2 51 -3 19 -1 41 -5 48 -9 6 -5 12 -4 12 1 0 6 12 13
27 17 15 3 34 15 43 25 10 11 19 18 21 15 8 -8 3 41 -6 55 -6 9 -4 11 5 5 8
-5 4 5 -8 22 -12 17 -20 32 -18 34 3 2 -10 5 -27 5 -17 1 -37 10 -45 20 -9 12
-13 14 -10 4z"/>
<path d="M5479 4253 c-1 -5 -1 -11 -1 -14 1 -3 -17 -6 -39 -7 -30 -1 -38 1
-33 11 6 9 4 9 -7 1 -8 -6 -38 -11 -67 -12 -29 0 -56 -3 -60 -7 -4 -3 -7 -41
-8 -84 0 -43 -4 -83 -8 -89 -4 -7 -3 -12 2 -12 15 0 8 -114 -8 -128 -12 -10
-12 -12 -1 -10 10 2 15 -9 16 -39 2 -27 -1 -40 -8 -36 -6 3 -7 1 -3 -5 14 -23
16 -56 3 -64 -9 -6 -9 -10 1 -17 19 -11 19 -15 4 -34 -8 -9 -9 -17 -3 -21 5
-4 8 -20 6 -36 -2 -16 1 -33 7 -36 8 -5 155 -8 215 -5 7 1 10 11 7 27 -3 15
-1 23 5 20 6 -4 7 4 3 21 -9 37 -8 65 2 82 7 10 5 12 -5 6 -12 -8 -12 -6 0 8
7 9 9 17 3 17 -5 0 -8 9 -5 20 3 11 9 17 14 14 5 -3 7 -9 4 -14 -3 -5 -2 -11
3 -14 4 -2 8 6 8 19 0 13 -2 23 -5 23 -21 -2 -26 7 -24 48 1 26 4 53 7 60 3 8
2 14 -2 14 -6 0 -7 23 -3 98 1 7 7 10 14 7 6 -4 5 -1 -3 7 -14 12 -19 102 -6
115 3 3 -1 18 -9 33 -8 15 -11 30 -8 34 4 3 3 6 0 6 -4 0 -8 -3 -8 -7z"/>
<path d="M5870 4191 c0 -6 4 -12 8 -15 5 -3 9 1 9 9 0 8 -4 15 -9 15 -4 0 -8
-4 -8 -9z"/>
<path d="M4095 4110 c3 -5 8 -10 11 -10 2 0 4 5 4 10 0 6 -5 10 -11 10 -5 0
-7 -4 -4 -10z"/>
<path d="M4253 4075 c0 -8 4 -12 9 -9 5 3 6 10 3 15 -9 13 -12 11 -12 -6z"/>
<path d="M6730 4076 c0 -2 7 -7 16 -10 8 -3 12 -2 9 4 -6 10 -25 14 -25 6z"/>
<path d="M4306 4048 c3 -5 10 -6 15 -3 13 9 11 12 -6 12 -8 0 -12 -4 -9 -9z"/>
<path d="M4895 4050 c-3 -5 -1 -10 4 -10 6 0 11 5 11 10 0 6 -2 10 -4 10 -3 0
-8 -4 -11 -10z"/>
<path d="M5196 4052 c-3 -4 4 -9 15 -9 23 -2 25 3 4 10 -8 4 -16 3 -19 -1z"/>
<path d="M6786 4048 c3 -5 10 -6 15 -3 13 9 11 12 -6 12 -8 0 -12 -4 -9 -9z"/>
<path d="M7020 4050 c-12 -7 -10 -9 8 -7 12 0 22 5 22 9 0 11 -12 10 -30 -2z"/>
<path d="M4447 4034 c-3 -3 -21 -6 -39 -6 l-34 0 1 -146 c1 -81 5 -158 9 -172
10 -30 45 -70 62 -70 7 0 14 -4 16 -10 2 -5 21 -12 43 -16 104 -16 116 -11
112 52 -2 21 1 47 6 58 5 10 5 16 0 13 -4 -3 -8 8 -8 24 0 22 4 28 15 24 10
-3 10 -1 -2 9 -19 14 -25 32 -9 21 6 -3 7 6 2 22 -9 34 -8 44 3 62 6 10 5 16
-2 19 -7 2 -12 8 -12 13 0 6 4 8 9 4 6 -3 6 6 1 24 -5 19 -4 33 3 40 18 18
-11 31 -60 28 -24 -2 -43 1 -43 6 0 4 -10 2 -22 -4 -27 -14 -29 -14 -38 0 -3
6 -9 9 -13 5z"/>
<path d="M4647 4026 c10 -16 9 -121 -2 -135 -6 -9 -6 -13 0 -9 6 4 10 -43 9
-133 l-1 -139 49 -1 c26 0 73 -1 103 -1 93 0 92 0 91 25 -1 12 2 28 7 35 6 8
5 12 -2 12 -9 0 -9 5 -1 20 6 11 7 20 3 20 -12 0 -10 64 2 72 6 5 5 8 -2 8 -7
0 -13 5 -13 11 0 5 4 8 9 5 5 -4 7 4 3 16 -5 20 -3 21 10 11 12 -10 15 -10 15
2 0 7 -3 14 -6 13 -23 -2 -28 6 -24 45 2 23 6 48 8 55 2 6 0 12 -6 12 -6 0 -8
4 -4 10 3 5 12 7 19 4 8 -3 17 0 22 7 4 8 3 10 -5 5 -13 -9 -44 12 -36 24 3 4
-4 10 -15 13 -11 3 -20 0 -20 -6 0 -8 -3 -8 -11 0 -6 6 -25 7 -49 3 -21 -4
-45 -3 -54 2 -9 5 -16 5 -16 1 0 -4 -11 -8 -25 -8 -14 0 -25 2 -25 5 0 3 -9 6
-19 6 -11 0 -17 -4 -14 -10z"/>
<path d="M5130 4030 c0 -6 -7 -10 -15 -10 -45 0 -120 -70 -130 -120 -2 -12 -9
-28 -15 -34 -5 -7 -7 -16 -2 -20 4 -4 7 -26 8 -49 1 -23 4 -50 8 -59 4 -9 4
-22 0 -29 -4 -8 -3 -9 4 -5 7 4 16 -3 23 -17 17 -38 90 -71 156 -72 l57 0 1
77 c0 65 3 80 20 93 20 16 19 16 -2 5 -19 -9 -23 -8 -23 5 0 10 5 13 12 9 7
-5 8 -3 3 7 -5 7 -10 28 -12 46 -3 27 -1 32 14 27 16 -5 16 -4 1 5 -19 13 -18
38 3 53 12 8 11 9 -2 5 -13 -4 -16 2 -14 37 3 41 1 43 -24 42 -14 -1 -36 2
-48 6 -14 4 -23 3 -23 -2z"/>
<path d="M5560 4030 c-9 -6 -10 -10 -3 -10 6 0 15 5 18 10 8 12 4 12 -15 0z"/>
<path d="M5656 4032 c-2 -4 -19 -7 -35 -6 -30 2 -36 -5 -32 -35 2 -8 -2 -10
-10 -5 -9 5 -9 3 -3 -7 14 -22 15 -211 1 -202 -9 5 -9 3 -1 -8 6 -8 11 -45 11
-82 0 -37 3 -70 6 -73 2 -3 53 -6 112 -6 116 -2 123 1 119 52 -1 22 2 30 14
31 15 0 15 1 2 7 -9 4 -15 16 -15 27 0 11 6 23 15 27 13 6 13 7 0 7 -13 1 -16
17 -16 90 0 50 4 87 9 84 5 -3 5 3 -1 13 -5 11 -8 35 -7 54 l2 36 -44 -2 c-25
-1 -47 -5 -50 -8 -3 -3 -14 -1 -24 5 -14 7 -19 6 -19 -2 0 -9 -3 -9 -14 0 -8
7 -17 8 -20 3z"/>
<path d="M6024 4032 c4 -7 -2 -16 -16 -21 -24 -9 -91 -79 -95 -99 -2 -6 -5
-37 -8 -68 -3 -31 -7 -59 -8 -63 -1 -3 11 -32 26 -63 23 -48 36 -61 79 -82 66
-33 143 -36 151 -6 3 11 1 20 -5 20 -5 0 -6 5 -2 11 3 6 6 28 6 49 -1 38 20
71 32 51 4 -5 2 -12 -4 -16 -5 -3 -10 -12 -10 -18 0 -7 4 -6 10 3 8 12 10 11
10 -5 0 -12 -6 -27 -12 -34 -9 -9 -9 -12 -1 -7 8 4 11 -5 10 -31 -2 -32 2 -38
23 -43 27 -7 101 9 140 30 27 14 41 31 62 70 7 14 20 31 28 38 8 8 9 11 3 7
-16 -8 -16 0 -2 27 7 12 7 18 1 14 -11 -7 -11 12 1 32 5 7 3 12 -5 12 -9 0 -9
3 2 10 8 5 10 10 4 10 -5 0 -16 22 -23 48 -7 29 -21 55 -36 66 -14 10 -22 22
-19 27 3 5 -3 6 -12 2 -12 -4 -15 -3 -10 6 4 6 4 11 -1 10 -27 -5 -53 2 -47
13 5 7 3 8 -6 3 -16 -10 -59 -11 -82 -2 -20 7 -29 -12 -21 -44 4 -15 3 -20 -5
-15 -7 4 -12 2 -12 -3 0 -6 6 -11 13 -11 8 0 7 -4 -3 -10 -8 -5 -10 -10 -5
-10 15 0 16 -43 2 -52 -9 -6 -8 -8 2 -8 11 0 11 -3 0 -17 -10 -11 -10 -14 -1
-9 15 9 15 1 1 -26 -6 -11 -7 -18 -1 -14 5 3 10 -6 10 -20 0 -13 -3 -22 -6
-20 -3 3 -11 1 -18 -5 -10 -8 -12 13 -12 105 0 79 4 116 12 116 6 0 5 4 -3 9
-13 8 -13 12 0 27 12 15 12 16 0 9 -18 -11 -113 -11 -131 0 -9 5 -11 4 -6 -3z"/>
<path d="M6620 4024 c-76 -25 -106 -137 -49 -183 49 -38 104 -95 101 -104 -1
-4 2 -6 8 -2 6 3 26 -10 45 -29 19 -20 35 -34 35 -31 0 3 13 -7 29 -24 41 -42
62 -51 103 -42 38 9 97 48 99 65 0 6 3 24 5 40 5 28 -12 86 -25 86 -3 0 -28
20 -55 45 -27 24 -54 46 -58 47 -5 2 -10 13 -10 24 -1 11 -8 21 -15 21 -10 0
-10 -4 0 -16 11 -14 10 -14 -6 -2 -10 8 -16 20 -13 28 3 8 2 12 -3 8 -17 -10
-42 7 -36 23 3 9 3 13 -1 9 -8 -8 -66 32 -60 42 7 11 -55 8 -94 -5z"/>
<path d="M6836 4031 c-10 -4 -31 -6 -46 -5 -21 1 -27 -2 -23 -12 3 -8 9 -12
13 -9 10 6 56 -35 52 -47 -1 -5 2 -7 7 -3 14 8 63 -36 57 -51 -3 -7 3 -10 15
-7 10 3 19 1 19 -5 0 -18 29 -21 57 -7 15 8 22 15 14 15 -11 0 -11 3 -1 15 7
8 13 35 14 59 2 37 -2 46 -19 51 -11 4 -24 6 -29 6 -27 -5 -92 -4 -101 1 -6 3
-18 2 -29 -1z"/>
<path d="M5874 4012 c4 -3 14 -7 22 -8 9 -1 13 0 10 4 -4 3 -14 7 -22 8 -9 1
-13 0 -10 -4z"/>
<path d="M4300 3996 c0 -2 8 -10 18 -17 15 -13 16 -12 3 4 -13 16 -21 21 -21
13z"/>
<path d="M6466 3992 c-3 -5 1 -9 9 -9 8 0 12 4 9 9 -3 4 -7 8 -9 8 -2 0 -6 -4
-9 -8z"/>
<path d="M4936 3948 c3 -5 10 -6 15 -3 13 9 11 12 -6 12 -8 0 -12 -4 -9 -9z"/>
<path d="M6470 3931 c0 -6 4 -13 10 -16 6 -3 7 1 4 9 -7 18 -14 21 -14 7z"/>
<path d="M4933 3915 c0 -8 4 -15 9 -15 4 0 8 4 8 9 0 6 -4 12 -8 15 -5 3 -9
-1 -9 -9z"/>
<path d="M6435 3910 c3 -5 8 -10 11 -10 2 0 4 5 4 10 0 6 -5 10 -11 10 -5 0
-7 -4 -4 -10z"/>
<path d="M5867 3889 c7 -7 15 -10 18 -7 3 3 -2 9 -12 12 -14 6 -15 5 -6 -5z"/>
<path d="M6465 3890 c-3 -6 1 -7 9 -4 18 7 21 14 7 14 -6 0 -13 -4 -16 -10z"/>
<path d="M5514 3872 c4 -3 14 -7 22 -8 9 -1 13 0 10 4 -4 3 -14 7 -22 8 -9 1
-13 0 -10 -4z"/>
<path d="M5834 3866 c1 -8 5 -18 8 -22 4 -3 5 1 4 10 -1 8 -5 18 -8 22 -4 3
-5 -1 -4 -10z"/>
<path d="M6910 3871 c0 -6 4 -13 10 -16 6 -3 7 1 4 9 -7 18 -14 21 -14 7z"/>
<path d="M5235 3861 c-3 -5 -2 -12 3 -15 5 -3 9 1 9 9 0 17 -3 19 -12 6z"/>
<path d="M6950 3846 c7 -7 13 -7 20 0 6 6 3 10 -10 10 -13 0 -16 -4 -10 -10z"/>
<path d="M6475 3819 c-4 -6 -5 -12 -2 -15 2 -3 7 2 10 11 7 17 1 20 -8 4z"/>
<path d="M4064 3803 c-4 -10 -8 -29 -8 -43 -1 -14 -5 -31 -10 -39 -6 -9 -5
-12 1 -8 7 5 11 -10 10 -43 0 -28 3 -53 6 -57 7 -6 55 -6 107 1 61 7 112 48
126 99 1 4 3 10 4 15 1 4 2 11 1 16 -1 4 4 15 10 23 10 11 10 14 -2 11 -9 -2
-14 5 -13 20 1 17 -2 20 -11 12 -18 -15 -146 -11 -138 4 3 6 0 5 -8 -1 -16
-15 -63 -18 -54 -3 3 6 2 10 -3 10 -6 0 -13 -8 -18 -17z"/>
<path d="M4333 3805 c0 -8 4 -12 9 -9 5 3 6 10 3 15 -9 13 -12 11 -12 -6z"/>
<path d="M7030 3812 c0 -4 10 -9 22 -9 18 -2 20 0 8 7 -18 12 -30 13 -30 2z"/>
<path d="M6993 3795 c0 -8 4 -12 9 -9 5 3 6 10 3 15 -9 13 -12 11 -12 -6z"/>
<path d="M7055 3779 c-4 -6 -5 -12 -2 -15 2 -3 7 2 10 11 7 17 1 20 -8 4z"/>
<path d="M4330 3770 c0 -5 5 -10 11 -10 5 0 7 5 4 10 -3 6 -8 10 -11 10 -2 0
-4 -4 -4 -10z"/>
<path d="M6547 3740 c-21 -25 -25 -38 -22 -76 2 -25 5 -48 8 -50 7 -8 206 -8
214 -1 8 8 -119 127 -136 127 -5 0 -11 7 -15 15 -8 22 -21 18 -49 -15z"/>
<path d="M4916 3748 c3 -5 10 -6 15 -3 13 9 11 12 -6 12 -8 0 -12 -4 -9 -9z"/>
<path d="M4333 3735 c0 -8 4 -12 9 -9 5 3 6 10 3 15 -9 13 -12 11 -12 -6z"/>
<path d="M5510 3730 c0 -5 5 -10 11 -10 5 0 7 5 4 10 -3 6 -8 10 -11 10 -2 0
-4 -4 -4 -10z"/>
<path d="M5547 3729 c7 -7 15 -10 18 -7 3 3 -2 9 -12 12 -14 6 -15 5 -6 -5z"/>
<path d="M4930 3708 c0 -4 4 -8 9 -8 6 0 12 4 15 8 3 5 -1 9 -9 9 -8 0 -15 -4
-15 -9z"/>
<path d="M6430 3711 c0 -6 4 -13 10 -16 6 -3 7 1 4 9 -7 18 -14 21 -14 7z"/>
<path d="M4310 3561 c0 -20 21 -33 37 -23 20 13 11 42 -14 42 -16 0 -23 -6
-23 -19z"/>
<path d="M6339 3578 c-1 -2 -3 -46 -5 -98 -1 -52 -3 -102 -3 -110 -1 -12 -12
-16 -48 -15 -27 0 -53 3 -58 7 -8 5 -10 32 -6 82 1 4 13 5 27 2 14 -4 23 -3
20 2 -3 5 7 7 23 4 23 -3 27 0 27 22 0 25 -3 26 -53 26 -41 0 -57 -5 -71 -20
-34 -40 -32 -138 4 -164 9 -7 44 -12 83 -11 36 1 72 -3 79 -8 9 -7 11 -6 6 7
-3 9 0 24 7 33 8 9 13 18 12 20 -2 1 -3 6 -2 11 0 4 2 53 2 109 2 101 1 103
-20 103 -13 0 -24 -1 -24 -2z"/>
<path d="M6423 3563 c0 -29 17 -45 33 -32 23 19 17 49 -9 49 -16 0 -24 -6 -24
-17z"/>
<path d="M6763 3561 c-1 -11 6 -21 17 -24 23 -6 30 0 30 25 0 26 -45 25 -47
-1z"/>
<path d="M7279 3563 c-6 -127 -1 -214 14 -231 10 -10 15 -21 13 -23 -4 -4 23
-4 56 0 4 1 6 10 5 21 -1 18 -10 24 -29 21 -9 -1 -9 -4 -11 124 -2 95 -3 100
-24 103 -17 2 -23 -2 -24 -15z"/>
<path d="M7389 3488 c-2 -166 -2 -167 77 -183 6 -2 10 10 10 26 0 15 -3 26 -6
24 -4 -2 -16 2 -26 10 -12 9 -14 14 -6 15 9 0 10 5 3 18 -6 11 -6 24 -1 32 5
9 5 19 -2 27 -7 9 -7 17 1 26 6 8 8 17 4 20 -3 4 -6 21 -7 39 -1 26 -6 34 -23
36 -22 3 -23 1 -24 -90z"/>
<path d="M5661 3543 c3 -35 -1 -42 -28 -45 -20 -2 -28 -9 -28 -23 0 -15 8 -21
32 -23 29 -3 31 -5 23 -28 -5 -13 -6 -24 -1 -24 4 0 7 -22 5 -49 -2 -41 1 -49
14 -44 11 5 13 3 7 -8 -6 -11 -4 -10 8 1 10 9 17 34 18 62 2 31 6 45 13 41 6
-3 5 0 -1 8 -21 22 -16 41 8 34 12 -4 19 -3 16 2 -3 5 4 9 16 9 23 -1 27 4 27
29 0 11 -11 15 -40 15 -38 0 -40 2 -40 30 0 26 -4 30 -26 30 -18 0 -25 -5 -23
-17z"/>
<path d="M6900 3530 c0 -29 -14 -37 -52 -31 -5 0 -8 -10 -8 -23 0 -15 7 -26
20 -29 11 -3 20 -1 20 5 0 5 4 7 8 4 5 -3 9 -35 9 -71 1 -71 3 -77 32 -82 15
-2 18 6 19 68 2 82 6 93 33 79 13 -7 19 -7 19 0 0 5 6 9 13 8 6 -2 12 6 12 17
0 16 -8 21 -40 25 -36 5 -40 7 -38 33 2 23 -2 27 -22 27 -21 0 -25 -5 -25 -30z"/>
<path d="M6771 3492 c-5 -9 -8 -55 -8 -102 1 -84 1 -85 26 -85 26 0 26 1 24
70 -1 39 -2 82 -2 96 -1 32 -27 45 -40 21z"/>
<path d="M4309 3465 c0 -19 0 -60 0 -90 0 -76 0 -79 8 -72 3 4 13 1 22 -5 9
-7 13 -9 9 -4 -4 5 3 17 15 27 13 12 16 18 7 17 -11 -2 -14 12 -16 70 -2 95
-1 92 -24 92 -16 0 -20 -7 -21 -35z"/>
<path d="M4402 3482 c-13 -27 -8 -165 6 -170 7 -2 9 -9 5 -15 -5 -8 -2 -8 9 0
8 7 18 10 21 7 4 -4 5 16 3 45 -3 34 0 49 7 44 6 -3 7 -1 3 5 -4 7 -9 21 -11
32 -3 17 0 19 21 16 13 -3 24 -1 24 4 0 4 16 3 35 -2 19 -6 32 -15 29 -20 -3
-4 0 -8 7 -8 8 0 8 -4 1 -13 -7 -8 -7 -18 -2 -27 5 -8 5 -21 0 -30 -10 -18 8
-46 30 -45 11 0 16 15 18 65 5 103 -23 130 -136 129 -48 -1 -64 -4 -70 -17z"/>
<path d="M4656 3491 c-3 -5 -7 -45 -8 -88 -1 -57 2 -84 12 -95 23 -24 38 1 36
57 -2 43 11 123 13 88 1 -9 8 -10 26 -3 15 6 26 6 30 -1 4 -5 10 -7 14 -5 19
12 31 -15 34 -74 2 -61 3 -64 27 -64 24 0 25 1 22 68 -3 78 -21 111 -66 120
-44 9 -134 7 -140 -3z"/>
<path d="M4920 3482 c-20 -16 -24 -29 -25 -78 -1 -51 2 -62 24 -81 24 -22 34
-22 167 -11 6 1 11 6 12 12 16 107 6 161 -31 169 -58 12 -124 7 -147 -11z
m120 -37 c17 0 26 -75 10 -85 -9 -5 -46 -6 -97 -1 -12 1 -12 38 0 58 4 6 2 15
-5 20 -15 9 50 23 67 14 6 -3 17 -6 25 -6z"/>
<path d="M5149 3493 c-1 -5 -2 -26 -3 -48 -1 -22 -5 -45 -8 -51 -4 -5 -3 -16
3 -24 13 -21 11 -32 -3 -24 -17 10 13 -28 30 -39 7 -5 9 -13 6 -19 -4 -7 -2
-8 5 -4 6 4 8 12 5 18 -5 7 -2 8 6 3 7 -4 16 -2 21 6 8 12 11 12 19 -1 8 -13
10 -12 10 3 0 10 5 15 10 12 6 -3 10 -1 10 6 0 7 3 9 7 6 3 -4 13 2 21 14 8
12 20 18 29 14 13 -4 14 -3 4 9 -7 9 -8 17 -2 20 5 3 12 0 15 -6 4 -9 5 -8 4
2 -2 19 11 60 20 60 4 0 8 12 8 26 3 40 -35 27 -61 -22 -27 -51 -57 -82 -89
-90 -24 -6 -25 -4 -24 43 1 86 -1 93 -22 93 -11 0 -21 -3 -21 -7z"/>
<path d="M5419 3498 c-6 -23 -6 -38 -1 -39 4 -1 28 -2 53 -4 26 -1 50 -5 55
-8 10 -6 10 -70 -1 -86 -8 -14 -35 -14 -35 -1 0 6 -5 10 -11 10 -5 0 -7 -4 -4
-10 3 -5 -1 -10 -10 -10 -12 0 -15 5 -11 17 6 16 5 16 -12 0 -17 -16 -20 -16
-25 -3 -7 18 30 31 68 24 14 -3 26 -1 26 3 6 41 4 44 -36 46 -65 2 -91 -13
-103 -59 -6 -22 -8 -37 -6 -35 3 3 15 -5 27 -17 19 -18 32 -21 87 -19 81 3 90
4 84 14 -2 4 0 10 6 14 6 4 8 10 5 15 -3 5 -1 12 5 15 8 5 8 11 0 20 -7 8 -7
15 -1 19 13 9 -4 65 -25 81 -14 10 -133 22 -135 13z"/>
<path d="M5839 3481 c-20 -16 -23 -28 -24 -89 -1 -49 2 -69 10 -65 7 2 18 -3
25 -11 7 -9 17 -13 22 -10 5 3 16 -2 24 -12 10 -14 13 -15 9 -3 -5 12 0 16 22
14 33 -2 45 12 32 36 -7 13 -18 16 -46 13 -23 -3 -39 0 -45 8 -11 19 -10 90 2
83 6 -3 10 0 10 7 0 10 2 10 9 -1 5 -8 11 -9 15 -3 7 11 44 10 64 -2 26 -16
10 -26 -42 -26 -51 0 -54 -1 -48 -22 6 -27 22 -39 36 -30 6 3 25 5 42 3 18 -1
36 4 43 13 7 9 16 14 20 12 4 -3 6 12 5 31 -1 52 -31 73 -104 73 -41 0 -64 -5
-81 -19z"/>
<path d="M6425 3408 c0 -52 -3 -100 -9 -108 -9 -12 -8 -13 4 -4 8 6 23 10 33
9 17 -3 19 4 19 110 0 83 -1 85 -25 85 -24 0 -24 -2 -22 -92z"/>
<path d="M6550 3494 c-26 -7 -42 -44 -42 -96 1 -57 22 -88 60 -88 19 0 23 -4
18 -17 -6 -17 -5 -17 7 -1 11 14 16 15 27 5 10 -9 11 -9 6 1 -5 8 0 12 14 12
16 0 21 5 18 22 -3 20 -9 23 -51 22 -35 0 -46 3 -43 13 3 7 2 13 -2 13 -4 0
-8 9 -8 20 0 19 9 25 29 21 5 -1 6 3 2 9 -3 6 -11 8 -16 5 -5 -4 -9 -1 -9 4 0
11 4 12 67 14 32 0 38 -3 44 -26 5 -18 4 -25 -3 -21 -7 5 -8 2 -3 -6 5 -8 9
-33 11 -57 1 -34 -2 -43 -15 -44 -12 0 -11 -2 4 -8 l20 -8 -20 -6 c-11 -4 -29
-5 -40 -3 -29 5 -54 -11 -52 -33 1 -16 9 -19 63 -18 34 1 60 5 58 9 -2 3 4 9
13 12 13 4 18 15 17 38 -1 18 4 39 10 47 8 11 8 13 -1 8 -8 -5 -11 7 -10 42 0
28 4 48 9 45 4 -3 -1 10 -12 29 -12 19 -31 38 -43 41 -24 6 -103 6 -127 0z"/>
<path d="M7078 3477 c-4 -23 -2 -24 49 -23 30 1 58 -3 62 -9 5 -5 8 -28 7 -49
-1 -32 -5 -40 -23 -42 -14 -2 -23 1 -23 9 0 7 -3 8 -8 2 -10 -14 -45 -16 -54
-2 -14 22 -8 25 40 23 44 -1 47 1 47 24 0 23 -4 25 -49 26 -60 1 -97 -28 -94
-71 4 -39 39 -59 110 -60 66 -1 97 18 99 60 1 14 1 35 2 48 2 64 -28 87 -112
87 -43 0 -49 -3 -53 -23z"/>
<path d="M7509 3488 c-1 -7 -2 -44 -3 -82 -1 -65 0 -70 26 -86 16 -9 25 -20
20 -25 -4 -4 3 -3 14 3 12 6 32 11 45 10 41 -2 46 1 42 25 -4 20 -10 23 -51
23 l-47 -1 -2 65 c-1 36 -2 68 -2 73 -1 12 -41 8 -42 -5z"/>
<path d="M7669 3478 c0 -13 -1 -63 0 -111 0 -75 -2 -88 -15 -83 -9 3 -12 1 -9
-4 9 -14 -8 -12 -24 3 -11 10 -13 10 -7 0 4 -8 1 -13 -8 -13 -9 0 -16 5 -16
10 0 7 -5 6 -13 -2 -8 -6 -12 -22 -9 -35 3 -18 10 -22 33 -19 16 2 32 0 34 -4
7 -12 65 19 73 39 3 9 10 19 16 23 7 5 7 8 1 8 -11 0 -13 135 -2 146 3 4 1 16
-5 28 -6 11 -9 23 -7 26 2 3 -6 6 -18 8 -18 3 -23 -2 -24 -20z"/>
<path d="M7761 3351 c-8 -5 -11 -17 -7 -29 9 -27 46 -19 39 9 -7 24 -15 30
-32 20z"/>
<path d="M7835 3345 c-3 -8 -7 -21 -9 -29 -3 -8 2 -13 12 -12 32 2 44 39 17
50 -9 3 -18 -1 -20 -9z"/>
<path d="M7911 3346 c-8 -9 -9 -21 -4 -31 7 -13 12 -13 26 -2 15 10 16 15 4
31 -12 16 -14 16 -26 2z"/>
<path d="M5290 3331 c0 -6 4 -13 10 -16 6 -3 7 1 4 9 -7 18 -14 21 -14 7z"/>
<path d="M5070 3296 c0 -2 7 -7 16 -10 8 -3 12 -2 9 4 -6 10 -25 14 -25 6z"/>
</g>
</svg>
